
<?xml version="1.0" encoding="iso-8859-1"?>
<!-- Generator: Adobe Illustrator 19.0.0, SVG Export Plug-In . SVG Version: 6.00 Build 0)  -->
<svg version="1.1" id="Capa_1" xmlns="http://www.w3.org/2000/svg" xmlns:xlink="http://www.w3.org/1999/xlink" x="0px" y="0px"
	 viewBox="0 0 512 512" style="enable-background:new 0 0 512 512;" xml:space="preserve">
<path style="fill:#E8E8E8;" d="M445.863,439.51H40.403c-18.172,0-32.903-14.731-32.903-25.178V64.701
	c0-25.896,14.731-40.628,32.903-40.628h405.46c18.172,0,32.903,14.731,32.903,40.628v349.631
	C478.766,424.779,464.035,439.51,445.863,439.51z"/>
<path style="fill:#404B58;" d="M257.009,380.681c-11.872,0-21.495-9.623-21.495-21.495V235.903l-27.792,27.791
	c-8.394,8.394-22.004,8.394-30.398,0c-8.395-8.394-8.395-22.004,0-30.398l40.682-40.682c10.172-10.172,25.332-13.189,38.622-7.683
	c13.29,5.505,21.877,18.357,21.877,32.742v141.512C278.504,371.058,268.881,380.681,257.009,380.681z"/>
<path style="fill:#79C6E4;" d="M445.863,24.073H40.403C22.231,24.073,7.5,38.804,7.5,56.976v84.399h471.266V56.976
	C478.766,38.804,464.035,24.073,445.863,24.073z"/>
<rect x="7.5" y="141.37" style="opacity:0.1;enable-background:new    ;" width="471.27" height="26.679"/>
<path style="opacity:0.1;enable-background:new    ;" d="M445.863,24.073h-34.582c18.172,0,32.903,14.731,32.903,40.628v349.631
	c0,10.447-14.731,25.178-32.903,25.178h34.582c18.172,0,32.903-14.731,32.903-25.178V64.701
	C478.766,38.804,464.035,24.073,445.863,24.073z"/>
<circle style="fill:#79C6E4;" cx="382.9" cy="366.33" r="121.6"/>
<path style="opacity:0.1;enable-background:new    ;" d="M464.692,276.347c19.643,21.598,31.616,50.296,31.616,81.79
	c0,67.157-54.442,121.599-121.599,121.599c-31.494,0-60.192-11.974-81.79-31.617c22.243,24.456,54.319,39.808,89.981,39.808
	c67.157,0,121.599-54.441,121.599-121.599C504.5,330.666,489.148,298.59,464.692,276.347z"/>
<circle style="fill:#FFFFFF;" cx="382.9" cy="366.33" r="85.983"/>
<path style="opacity:0.1;enable-background:new    ;" d="M382.901,280.345c-47.487,0-85.983,38.496-85.983,85.983
	c0,26.218,11.749,49.679,30.252,65.45c-12.794-15.011-20.533-34.462-20.533-55.731c0-47.487,38.496-85.983,85.983-85.983
	c21.269,0,40.72,7.739,55.731,20.533C432.58,292.094,409.119,280.345,382.901,280.345z"/>
<path d="M382.901,324.885c-4.143,0-7.5,3.357-7.5,7.5v33.943c0,4.143,3.357,7.5,7.5,7.5h61.282c4.143,0,7.5-3.357,7.5-7.5
	s-3.357-7.5-7.5-7.5h-53.782v-26.443C390.401,328.242,387.044,324.885,382.901,324.885z M382.901,272.845
	c-51.547,0-93.483,41.937-93.483,93.483c0,51.547,41.936,93.483,93.483,93.483c13.651,0,26.814-2.879,39.122-8.557
	c3.762-1.735,5.403-6.191,3.669-9.952c-1.736-3.761-6.192-5.403-9.952-3.669c-10.324,4.763-21.372,7.178-32.839,7.178
	c-43.275,0-78.483-35.208-78.483-78.483s35.208-78.483,78.483-78.483s78.483,35.208,78.483,78.483
	c0,15.944-4.752,31.29-13.741,44.378c-2.346,3.414-1.479,8.083,1.936,10.428c3.412,2.346,8.084,1.48,10.428-1.936
	c10.715-15.598,16.378-33.88,16.378-52.87C476.385,314.781,434.448,272.845,382.901,272.845z M486.266,289.065V64.7
	c0-28.337-16.614-48.127-40.403-48.127H40.403C16.614,16.573,0,36.363,0,64.7v171.072c0,4.142,3.357,7.5,7.5,7.5s7.5-3.358,7.5-7.5
	v-86.898h372.658c4.143,0,7.5-3.357,7.5-7.5s-3.357-7.5-7.5-7.5H15V64.7c0-20.124,9.972-33.127,25.403-33.127h405.459
	c15.432,0,25.403,13.003,25.403,33.127v69.175h-36.473c-4.143,0-7.5,3.357-7.5,7.5s3.357,7.5,7.5,7.5h36.473v123.427
	c-23.113-21.735-54.208-35.073-88.364-35.073c-38.561,0-73.221,16.999-96.897,43.891v-63.447c0-17.429-10.404-33-26.507-39.671
	c-16.099-6.67-34.47-3.017-46.796,9.309l-40.681,40.682c-5.477,5.476-8.494,12.757-8.494,20.503c0,7.745,3.017,15.026,8.494,20.503
	c11.305,11.305,29.7,11.303,41.005,0l14.988-14.989v105.176c0,15.535,12.28,28.251,27.642,28.961
	c2.697,15.776,8.265,30.582,16.148,43.864h-231.4c-6.476,0-13.2-2.522-18.449-6.921C17.176,421.087,15,416.707,15,414.332V282.198
	c0-4.143-3.357-7.5-7.5-7.5s-7.5,3.357-7.5,7.5v132.134c0,14.802,18.022,32.679,40.403,32.679H282.2
	c23.68,29.496,60.02,48.416,100.701,48.416c71.186,0,129.099-57.913,129.099-129.099C512,337.377,502.42,310.623,486.266,289.065z
	 M253.966,372.838c-6.257-1.394-10.953-6.981-10.953-13.652V235.903c0-3.033-1.827-5.769-4.63-6.929
	c-2.803-1.162-6.028-0.518-8.174,1.625l-27.792,27.792c-5.454,5.456-14.334,5.458-19.792,0c-2.644-2.644-4.1-6.158-4.1-9.896
	c0-3.738,1.456-7.253,4.101-9.895l40.682-40.682c8.02-8.02,19.97-10.397,30.448-6.059c10.477,4.341,17.247,14.474,17.247,25.813
	v84.323c-10.938,18.951-17.201,40.923-17.201,64.331C253.803,368.511,253.859,370.681,253.966,372.838z M382.901,480.427
	c-62.914,0-114.099-51.185-114.099-114.099s51.185-114.099,114.099-114.099C445.815,252.23,497,303.414,497,366.328
	S445.815,480.427,382.901,480.427z M137.83,69.477v16.235c0,4.143,3.357,7.5,7.5,7.5s7.5-3.357,7.5-7.5V69.477
	c0-4.143-3.357-7.5-7.5-7.5C141.188,61.977,137.83,65.334,137.83,69.477z M263.264,81.504c-5.081,5.831-12.418,9.175-20.131,9.175
	s-15.05-3.344-20.131-9.175c-2.723-3.122-7.46-3.447-10.582-0.727c-3.122,2.722-3.448,7.459-0.727,10.582
	c7.931,9.1,19.39,14.319,31.439,14.319s23.509-5.22,31.439-14.319c2.722-3.123,2.396-7.86-0.727-10.582
	C270.721,78.056,265.986,78.381,263.264,81.504z M333.436,69.477v16.235c0,4.143,3.357,7.5,7.5,7.5s7.5-3.357,7.5-7.5V69.477
	c0-4.143-3.357-7.5-7.5-7.5C336.794,61.977,333.436,65.334,333.436,69.477z"/>
<g>
</g>
<g>
</g>
<g>
</g>
<g>
</g>
<g>
</g>
<g>
</g>
<g>
</g>
<g>
</g>
<g>
</g>
<g>
</g>
<g>
</g>
<g>
</g>
<g>
</g>
<g>
</g>
<g>
</g>
</svg>
