<?xml version="1.0" encoding="UTF-8"?>
<svg width="100%" height="100%" viewBox="0 0 30 30" version="1.1" xmlns="http://www.w3.org/2000/svg" xmlns:xlink="http://www.w3.org/1999/xlink">
    <!-- Generator: Sketch 60 (88103) - https://sketch.com -->
    <title>infinite-mathematical-symbol</title>
    <desc>Created with Sketch.</desc>
    <g id="Dialog" stroke="none" stroke-width="1" fill="none" fill-rule="evenodd">
        <g id="Select-range-dialog" transform="translate(-74.000000, -242.000000)">
            <rect id="Rectangle" fill="#FAFAFA" x="0" y="0" width="375" height="667"></rect>
            <rect id="Rectangle" fill="#FFFFFF" x="19" y="132" width="338" height="365" rx="20"></rect>
            <g id="infinite-mathematical-symbol" transform="translate(74.000000, 242.000000)" fill="#000000" fill-rule="nonzero">
                <path d="M23.0235099,0.255810811 C18.7893377,0.255810811 15.9872185,7.32 13.5150993,13.5539189 C11.4029801,18.8793243 9.40847682,23.907973 6.97927152,23.907973 C4.45430464,23.907973 2.90403974,18.6125676 2.90403974,14.8163514 C2.90403974,11.2966216 4.60470199,6.18162162 7.27013245,6.18162162 C9.85649007,6.18162162 11.2039073,10.4055405 11.2718543,10.622027 C11.6908609,12.0056757 12.5805298,12.4410811 13.2619868,11.592973 C13.9468212,10.7416216 14.1637748,8.91851351 13.7463576,7.52108108 C13.6577483,7.22513514 11.5277483,0.256216216 7.27013245,0.256216216 C2.98589404,0.256216216 0,7.93054054 0,14.8167568 C0,21.9198649 2.86629139,29.8341892 6.97907285,29.8341892 C10.7934437,29.8341892 13.3247682,23.4531081 15.7722517,17.2816216 C18.0363576,11.5743243 20.1750993,6.18202703 23.0235099,6.18202703 C24.7182119,6.18202703 25.8317881,7.35527027 26.4270199,9.76581081 C26.9427815,11.8577027 26.9423841,14.2248649 26.9419868,15.045 C26.9419868,15.5152703 26.8201987,17.8739189 26.2563576,19.9978378 C25.6134437,22.4172973 24.7007285,23.5435135 23.3817219,23.5435135 C20.7256291,23.5435135 19.290596,20.0205405 18.7501987,18.6936486 C18.6097351,18.3482432 18.5086093,18.0997297 18.3735099,17.8637838 C17.7651656,16.8004054 16.8480795,16.9431081 16.3259603,18.1860811 C15.8225166,19.3848649 15.8709934,21.167027 16.4209272,22.2458108 C16.4471523,22.3066216 16.4787417,22.3864865 16.5162914,22.4793243 C17.220596,24.2087838 19.3621192,29.4685135 23.3811258,29.4685135 C28.2657616,29.4685135 29.8454309,19.7497297 29.8454309,15.0044595 C29.8458278,11.9821622 29.5684768,9.32351351 29.0201325,7.10067568 C28.2502649,3.97905405 26.5845695,0.255810811 23.0235099,0.255810811 Z" id="Path"></path>
            </g>
        </g>
    </g>
</svg>