
<svg height="100%" viewBox="0 0 512.1 512" width="100%" xmlns="http://www.w3.org/2000/svg"><path d="m183 281.351562c4.101562 0 7.898438-1.601562 10.699219-4.402343l16.601562-16.597657c2.898438-2.902343 6.800781-4.402343 10.699219-4.402343 2 0 3.898438.402343 5.800781 1.199219 5.699219 2.300781 9.398438 7.902343 9.398438 14v134.800781c0 8.402343 6.800781 15.199219 15.199219 15.199219 8.402343 0 15.203124-6.796876 15.203124-15.199219v-208.199219c0-6.199219-3.703124-11.699219-9.402343-14-5.699219-2.398438-12.199219-1.101562-16.5 3.300781l-68.398438 68.398438c-5.902343 5.902343-5.902343 15.5 0 21.5 2.898438 2.800781 6.699219 4.402343 10.699219 4.402343zm0 0"/><path d="m0 457.851562c0 29.898438 24.300781 54.199219 54.199219 54.199219h403.699219c29.902343 0 54.203124-24.300781 54.203124-54.199219v-337.402343h-512.101562zm150.800781-223.902343 68.398438-68.398438c13.101562-13.101562 32.5-16.902343 49.601562-9.902343 17.097657 7.101562 28.097657 23.601562 28.097657 42.101562v208.101562c0 25.097657-20.398438 45.5-45.5 45.5-25.097657 0-45.5-20.402343-45.5-45.5v-100.300781c-6.898438 4-14.699219 6.199219-22.898438 6.199219-12.199219 0-23.601562-4.699219-32.199219-13.300781-17.699219-17.800781-17.699219-46.699219 0-64.5zm0 0"/><path d="m457.800781.0507812h-403.601562c-29.898438 0-54.199219 24.3007808-54.199219 54.1992188v35.898438h512v-35.898438c0-29.898438-24.300781-54.1992188-54.199219-54.1992188zm-368.300781 60.0976568c-8.5 0-14.800781-7-15.199219-15.199219-.402343-8.199219 7.199219-15.199219 15.199219-15.199219 8.5 0 14.800781 7 15.199219 15.199219.402343 8.199219-7.199219 15.199219-15.199219 15.199219zm333 0c-8.5 0-14.800781-7-15.199219-15.199219-.402343-8.199219 7.199219-15.199219 15.199219-15.199219 8.5 0 14.800781 7 15.199219 15.199219.300781 8.199219-7.300781 15.199219-15.199219 15.199219zm0 0"/></svg>