<?xml version="1.0" encoding="UTF-8"?>
<svg width="100%" height="100%" viewBox="0 0 29 29" version="1.1" xmlns="http://www.w3.org/2000/svg" xmlns:xlink="http://www.w3.org/1999/xlink">
    <!-- Generator: Sketch 60 (88103) - https://sketch.com -->
    <title>icon</title>
    <desc>Created with Sketch.</desc>
    <g id="Dialog" stroke="none" stroke-width="1" fill="none" fill-rule="evenodd">
        <g id="Select-range-dialog" transform="translate(-74.000000, -326.000000)">
            <rect id="Rectangle" fill="#FAFAFA" x="0" y="0" width="375" height="667"></rect>
            <rect id="Rectangle" fill="#FFFFFF" x="19" y="132" width="338" height="365" rx="20"></rect>
            <g id="icon" transform="translate(74.000000, 326.000000)" fill="#030104" fill-rule="nonzero">
                <path d="M26.3828571,0 L2.48357143,0 C1.11428571,0 0,1.11428571 0,2.48142857 L0,26.3807143 C0,27.75 1.11428571,28.8621429 2.48357143,28.8621429 L26.3828571,28.8621429 C27.75,28.8621429 28.8621429,27.7478571 28.8621429,26.3807143 L28.8621429,2.48142857 C28.8621429,1.11428571 27.75,0 26.3828571,0 Z M26.7364286,26.3807143 C26.7364286,26.5757143 26.5778571,26.7342857 26.3828571,26.7342857 L2.48357143,26.7342857 C2.28857143,26.7342857 2.12785714,26.5757143 2.12785714,26.3807143 L2.12785714,2.48142857 C2.12785714,2.28642857 2.28857143,2.12785714 2.48357143,2.12785714 L26.3828571,2.12785714 C26.5778571,2.12785714 26.7364286,2.28642857 26.7364286,2.48142857 L26.7364286,26.3807143 Z" id="Shape"></path>
                <polygon id="Path" points="9.20785714 9.41357143 16.5728571 9.41357143 16.5728571 9.465 9.94928571 22.3864286 13.9285714 22.3864286 20.55 8.69785714 20.55 6.32571429 9.20785714 6.32571429"></polygon>
            </g>
        </g>
    </g>
</svg>