<?xml version="1.0" encoding="UTF-8"?>
<svg width="100%" height="100%" viewBox="0 0 30 30" version="1.1" xmlns="http://www.w3.org/2000/svg" xmlns:xlink="http://www.w3.org/1999/xlink">
    <!-- Generator: Sketch 60 (88103) - https://sketch.com -->
    <title>calendar (2)</title>
    <desc>Created with Sketch.</desc>
    <g id="Dialog" stroke="none" stroke-width="1" fill="none" fill-rule="evenodd">
        <g id="Select-range-dialog" transform="translate(-74.000000, -420.000000)">
            <rect id="Rectangle" fill="#FAFAFA" x="0" y="0" width="375" height="667"></rect>
            <rect id="Rectangle" fill="#FFFFFF" x="19" y="132" width="338" height="365" rx="20"></rect>
            <g id="calendar-(2)" transform="translate(74.000000, 420.000000)" fill="#000000" fill-rule="nonzero">
                <path d="M27.0703125,10.078125 C27.2244141,10.078125 27.3755859,10.0154297 27.4845117,9.90638672 C27.5935547,9.79746094 27.65625,9.64628906 27.65625,9.4921875 C27.65625,9.33808594 27.5935547,9.18691406 27.4845117,9.07792969 C27.3755859,8.96894531 27.2244141,8.90625 27.0703125,8.90625 C26.9162109,8.90625 26.7650391,8.96888672 26.6560547,9.07792969 C26.5470703,9.18697266 26.484375,9.33808594 26.484375,9.4921875 C26.484375,9.64628906 26.5470117,9.79746094 26.6560547,9.90638672 C26.7650391,10.0154297 26.9162109,10.078125 27.0703125,10.078125 Z" id="XMLID_699_"></path>
                <path d="M11.5136719,25.9961133 L11.5049414,25.9961133 C11.1813867,25.9961133 10.9190039,26.2584961 10.9190039,26.5820508 C10.9190039,26.9056055 11.1813867,27.1679883 11.5049414,27.1679883 L11.5136719,27.1679883 C11.8372266,27.1679883 12.0996094,26.9056055 12.0996094,26.5820508 C12.0996094,26.2584961 11.8372266,25.9961133 11.5136719,25.9961133 Z" id="XMLID_698_"></path>
                <path d="M30,23.5307227 L30,4.1015625 C30,3.13230469 29.2114453,2.34375 28.2421875,2.34375 L26.2351172,2.34375 L26.2351172,1.9921875 C26.2351172,0.893671875 25.3414453,0 24.2429297,0 C23.1444141,0 22.2507422,0.893671875 22.2507422,1.9921875 L22.2507422,2.34375 L16.9847461,2.34375 L16.9847461,1.9921875 C16.9847461,0.893671875 16.0910742,0 14.9925586,0 C13.894043,0 13.0003711,0.893671875 13.0003711,1.9921875 L13.0003711,2.34375 L7.734375,2.34375 L7.734375,1.9921875 C7.734375,0.893671875 6.84070313,0 5.7421875,0 C4.64367187,0 3.75,0.893671875 3.75,1.9921875 L3.75,2.34375 L1.7578125,2.34375 C0.788554688,2.34375 0,3.13230469 0,4.1015625 L0,28.2421875 C0,29.2114453 0.788554688,30 1.7578125,30 L23.5307227,30 C23.6924414,30 23.8388672,29.9344336 23.9448633,29.8284961 C23.9449219,29.8284375 23.9449805,29.8284375 23.9450391,29.8283789 L29.8283789,23.9450391 L29.8283789,23.9450391 C29.934375,23.8389844 30,23.6925 30,23.5307227 Z M23.4226172,1.9921875 C23.4226172,1.53984375 23.7905859,1.171875 24.2429297,1.171875 C24.6952734,1.171875 25.0632422,1.53984375 25.0632422,1.9921875 L25.0632422,4.86328125 C25.0632422,5.315625 24.6952734,5.68359375 24.2429297,5.68359375 C23.7905859,5.68359375 23.4226172,5.315625 23.4226172,4.86328125 L23.4226172,1.9921875 Z M14.1722461,1.9921875 C14.1722461,1.53984375 14.5402148,1.171875 14.9925586,1.171875 C15.4449023,1.171875 15.8128711,1.53984375 15.8128711,1.9921875 L15.8128711,4.86328125 C15.8128711,5.315625 15.4449023,5.68359375 14.9925586,5.68359375 C14.5402148,5.68359375 14.1722461,5.315625 14.1722461,4.86328125 L14.1722461,1.9921875 Z M4.921875,1.9921875 C4.921875,1.53984375 5.28984375,1.171875 5.7421875,1.171875 C6.19453125,1.171875 6.5625,1.53984375 6.5625,1.9921875 L6.5625,4.86328125 C6.5625,5.315625 6.19453125,5.68359375 5.7421875,5.68359375 C5.28984375,5.68359375 4.921875,5.315625 4.921875,4.86328125 L4.921875,1.9921875 Z M1.171875,28.2421875 L1.171875,27.1679883 L9.16992188,27.1679883 C9.49347656,27.1679883 9.75585938,26.9056055 9.75585938,26.5820508 C9.75585938,26.2584961 9.49347656,25.9961133 9.16992188,25.9961133 L1.171875,25.9961133 L1.171875,10.078125 L24.7265625,10.078125 C25.0501172,10.078125 25.3125,9.81574219 25.3125,9.4921875 C25.3125,9.16863281 25.0501172,8.90625 24.7265625,8.90625 L1.171875,8.90625 L1.171875,4.1015625 C1.171875,3.77847656 1.43472656,3.515625 1.7578125,3.515625 L3.75,3.515625 L3.75,4.86328125 C3.75,5.96179688 4.64367187,6.85546875 5.7421875,6.85546875 C6.84070313,6.85546875 7.734375,5.96179688 7.734375,4.86328125 L7.734375,3.515625 L13.0003711,3.515625 L13.0003711,4.86328125 C13.0003711,5.96179688 13.894043,6.85546875 14.9925586,6.85546875 C16.0910742,6.85546875 16.9847461,5.96179688 16.9847461,4.86328125 L16.9847461,3.515625 L22.2507422,3.515625 L22.2507422,4.86328125 C22.2507422,5.96179688 23.1444141,6.85546875 24.2429297,6.85546875 C25.3414453,6.85546875 26.2351172,5.96179688 26.2351172,4.86328125 L26.2351172,3.515625 L28.2421875,3.515625 C28.5652734,3.515625 28.828125,3.77847656 28.828125,4.1015625 L28.828125,22.9447852 L24.7025977,22.9447852 C23.7333398,22.9447852 22.9447852,23.7333398 22.9447852,24.7025977 L22.9447852,28.828125 L1.7578125,28.828125 C1.43472656,28.828125 1.171875,28.5652734 1.171875,28.2421875 Z M24.1166602,27.9994336 L24.1166602,24.7025391 C24.1166602,24.3794531 24.3795117,24.1166016 24.7025977,24.1166016 L27.9994922,24.1166016 L24.1166602,27.9994336 Z" id="XMLID_691_"></path>
                <path d="M11.4879492,20.5378711 L11.4879492,18.515625 L11.4879492,16.4933789 C11.4879492,15.8637891 10.9757227,15.3515625 10.3461328,15.3515625 L7.80826172,15.3515625 C7.48470703,15.3515625 7.22232422,15.6139453 7.22232422,15.9375 C7.22232422,16.2610547 7.48470703,16.5234375 7.80826172,16.5234375 L10.3160742,16.5234375 L10.3160742,17.9296875 L7.80826172,17.9296875 C7.48470703,17.9296875 7.22232422,18.1920703 7.22232422,18.515625 C7.22232422,18.8391797 7.48470703,19.1015625 7.80826172,19.1015625 L10.3160742,19.1015625 L10.3160742,20.5078125 L7.80826172,20.5078125 C7.48470703,20.5078125 7.22232422,20.7701953 7.22232422,21.09375 C7.22232422,21.4173047 7.48470703,21.6796875 7.80826172,21.6796875 L10.3461328,21.6796875 C10.9756641,21.6796875 11.4879492,21.1674609 11.4879492,20.5378711 Z" id="XMLID_690_"></path>
                <path d="M16.5738281,16.5234375 C16.8973828,16.5234375 17.1597656,16.2610547 17.1597656,15.9375 C17.1597656,15.6139453 16.8973828,15.3515625 16.5738281,15.3515625 L14.035957,15.3515625 C13.4063672,15.3515625 12.8941406,15.8637891 12.8941406,16.4933789 L12.8941406,18.515625 L12.8941406,20.5378711 C12.8941406,21.1674609 13.4063672,21.6796875 14.035957,21.6796875 L16.0178906,21.6796875 C16.6474805,21.6796875 17.159707,21.1674609 17.159707,20.5378711 L17.159707,19.0715625 C17.159707,18.4419727 16.6474805,17.9297461 16.0178906,17.9297461 L15.1558594,17.9297461 L14.0660156,17.9297461 L14.0660156,16.5234961 L16.5738281,16.5234961 L16.5738281,16.5234375 Z M15.1558594,19.1015625 L15.9878906,19.1015625 L15.9878906,20.5078125 L14.0660156,20.5078125 L14.0660156,19.1015625 L15.1558594,19.1015625 Z" id="XMLID_687_"></path>
                <path d="M21.6898242,17.9296875 L20.6988867,17.9296875 L19.7379492,17.9296875 L19.7379492,16.5234375 L22.2457617,16.5234375 C22.5693164,16.5234375 22.8316992,16.2610547 22.8316992,15.9375 C22.8316992,15.6139453 22.5693164,15.3515625 22.2457617,15.3515625 L19.7078906,15.3515625 C19.0783008,15.3515625 18.5660742,15.8637891 18.5660742,16.4933789 L18.5660742,17.9596875 C18.5660742,18.5892773 19.0783008,19.1015039 19.7078906,19.1015039 L20.6988867,19.1015039 L21.6597656,19.1015039 L21.6597656,20.5077539 L19.1519531,20.5077539 C18.8283984,20.5077539 18.5660156,20.7701367 18.5660156,21.0936914 C18.5660156,21.4172461 18.8283984,21.6796289 19.1519531,21.6796289 L21.6898242,21.6796289 C22.3194141,21.6796289 22.8316406,21.1674023 22.8316406,20.5378125 L22.8316406,19.0715039 C22.8316406,18.4419141 22.3194141,17.9296875 21.6898242,17.9296875 Z" id="XMLID_686_"></path>
            </g>
        </g>
    </g>
</svg>